<svg width="41" height="41" viewBox="0 0 41 41" fill="none" xmlns="http://www.w3.org/2000/svg">
<path d="M9.17762 41H0.677247V13.6264H9.17762V41ZM4.92286 9.89239C2.20471 9.89239 0 7.641 0 4.92285C1.94553e-08 3.61723 0.518657 2.36509 1.44187 1.44187C2.36509 0.518656 3.61723 0 4.92286 0C6.22848 0 7.48063 0.518656 8.40384 1.44187C9.32705 2.36509 9.84571 3.61723 9.84571 4.92285C9.84571 7.641 7.64008 9.89239 4.92286 9.89239ZM40.9918 41H32.5097V27.6747C32.5097 24.499 32.4456 20.4263 28.0902 20.4263C23.6707 20.4263 22.9935 23.8766 22.9935 27.4459V41H14.5022V13.6264H22.6548V17.3604H22.7738C23.9087 15.2097 26.6808 12.94 30.8166 12.94C39.4195 12.94 41.0009 18.6051 41.0009 25.9633V41H40.9918Z" fill="white"/>
</svg>
