<svg width="38" height="29" viewBox="0 0 38 29" fill="none" xmlns="http://www.w3.org/2000/svg">
<path d="M37.2801 9.41094C37.5695 9.18086 38 9.39609 38 9.75977V24.9375C38 26.9043 36.4043 28.5 34.4375 28.5H3.5625C1.5957 28.5 0 26.9043 0 24.9375V9.76719C0 9.39609 0.423047 9.18828 0.719922 9.41836C2.38242 10.7098 4.58672 12.35 12.157 17.8496C13.723 18.9926 16.3652 21.3973 19 21.3824C21.6496 21.4047 24.3438 18.948 25.8504 17.8496C33.4207 12.35 35.6176 10.7023 37.2801 9.41094ZM19 19C20.7219 19.0297 23.2008 16.8328 24.4477 15.9273C34.2965 8.78008 35.0461 8.15664 37.3172 6.37539C37.7477 6.04141 38 5.52187 38 4.97266V3.5625C38 1.5957 36.4043 0 34.4375 0H3.5625C1.5957 0 0 1.5957 0 3.5625V4.97266C0 5.52187 0.252344 6.03398 0.682813 6.37539C2.95391 8.14922 3.70352 8.78008 13.5523 15.9273C14.7992 16.8328 17.2781 19.0297 19 19Z" fill="white"/>
</svg>