<svg width="34" height="45" viewBox="0 0 34 45" fill="none" xmlns="http://www.w3.org/2000/svg">
<path d="M15.1407 44.0921C2.37041 25.5789 0 23.6789 0 16.875C0 7.55516 7.55516 0 16.875 0C26.1948 0 33.75 7.55516 33.75 16.875C33.75 23.6789 31.3796 25.5789 18.6093 44.0921C17.7712 45.3027 15.9787 45.3026 15.1407 44.0921ZM16.875 23.9062C20.7583 23.9062 23.9062 20.7583 23.9062 16.875C23.9062 12.9917 20.7583 9.84375 16.875 9.84375C12.9917 9.84375 9.84375 12.9917 9.84375 16.875C9.84375 20.7583 12.9917 23.9062 16.875 23.9062Z" fill="white"/>
</svg>
