<svg width="34" height="34" viewBox="0 0 34 34" fill="none" xmlns="http://www.w3.org/2000/svg">
<path d="M33.0304 24.0256L25.5928 20.838C25.275 20.7026 24.9219 20.6741 24.5866 20.7567C24.2512 20.8394 23.9518 21.0287 23.7333 21.2963L20.4395 25.3205C15.2702 22.8833 11.1101 18.7231 8.67281 13.5538L12.6971 10.26C12.9652 10.042 13.1549 9.74254 13.2376 9.40703C13.3203 9.07153 13.2914 8.71822 13.1553 8.4006L9.96775 0.962969C9.81841 0.620578 9.55428 0.341028 9.2209 0.172521C8.88753 0.00401443 8.5058 -0.0428862 8.14155 0.0399064L1.23518 1.63368C0.883995 1.71478 0.570669 1.91251 0.346338 2.19462C0.122007 2.47672 -8.08982e-05 2.82653 4.02177e-08 3.18695C4.02177e-08 20.2204 13.8061 34 30.813 34C31.1736 34.0002 31.5235 33.8782 31.8058 33.6539C32.088 33.4295 32.2858 33.1161 32.367 32.7648L33.9607 25.8584C34.043 25.4924 33.9951 25.1092 33.8253 24.7746C33.6555 24.4401 33.3744 24.1752 33.0304 24.0256Z" fill="white"/>
</svg>
