<svg width="51" height="50" viewBox="0 0 51 50" fill="none" xmlns="http://www.w3.org/2000/svg">
<path d="M50.3064 42.6853L40.3746 33.0968C39.9264 32.664 39.3187 32.4236 38.6811 32.4236H37.0574C39.8068 29.0287 41.4405 24.7586 41.4405 20.1135C41.4405 9.0632 32.1662 0.109497 20.7203 0.109497C9.27431 0.109497 0 9.0632 0 20.1135C0 31.1637 9.27431 40.1174 20.7203 40.1174C25.5317 40.1174 29.9547 38.5402 33.4712 35.8858V37.4534C33.4712 38.069 33.7202 38.6556 34.1685 39.0884L44.1003 48.6768C45.0367 49.5809 46.5509 49.5809 47.4773 48.6768L50.2965 45.9551C51.2328 45.0511 51.2328 43.5893 50.3064 42.6853ZM20.7203 32.4236C13.6774 32.4236 7.96933 26.9225 7.96933 20.1135C7.96933 13.314 13.6674 7.80333 20.7203 7.80333C27.7632 7.80333 33.4712 13.3044 33.4712 20.1135C33.4712 26.9129 27.7731 32.4236 20.7203 32.4236Z" fill="#1B3965"/>
</svg>
